# xmcd
#
# Track frame offsets:
#	150
#	10640
#	21947
#	36437
#	56135
#	68740
#	80382
#	91732
#	104742
#	116237
#
# Disc length: 1797 seconds
#
# Revision: 1
# Processed by: cddbd v1.5PL3 Copyright (c) Steve Scherf et al.
# Submitted via: audiograbber 1.82.01
#
DISCID=8007030a
DTITLE=Marty Robbins - Memories
DYEAR=2001
DGENRE=Country
TTITLE0=Bouquet Of Roses
TTITLE1=Begging To You
TTITLE2=Don't Worry
TTITLE3=El Paso
TTITLE4=Tonight Carmen
TTITLE5=Lovesick Blues
TTITLE6=Are You SIncere
TTITLE7=Devil Woman
TTITLE8=A White Sport Coat (And A Pink Carnation)
TTITLE9=Good Hearted Woman
EXTD=
EXTT0=
EXTT1=
EXTT2=
EXTT3=
EXTT4=
EXTT5=
EXTT6=
EXTT7=
EXTT8=
EXTT9=
PLAYORDER=
